<?xml version="1.0" standalone="no"?>
<!DOCTYPE svg PUBLIC "-//W3C//DTD SVG 20010904//EN"
 "http://www.w3.org/TR/2001/REC-SVG-20010904/DTD/svg10.dtd">
<svg version="1.0" xmlns="http://www.w3.org/2000/svg"
 width="2138.000000pt" height="2138.000000pt" viewBox="0 0 2138.000000 2138.000000"
 preserveAspectRatio="xMidYMid meet">

<g transform="translate(0.000000,2138.000000) scale(0.100000,-0.100000)"
fill="#000000" stroke="none">
<path d="M6555 18826 c-60 -13 -135 -30 -165 -39 -82 -24 -351 -160 -426 -214
-36 -26 -84 -62 -107 -79 -82 -60 -288 -327 -354 -459 -11 -22 -57 -164 -101
-315 l-80 -275 3 -1545 c3 -1571 4 -1598 41 -1702 17 -50 18 -104 2 -114 -7
-5 -47 -7 -88 -6 -41 2 -148 -4 -238 -12 -141 -13 -170 -19 -212 -42 -27 -15
-57 -36 -68 -48 -46 -52 -154 -245 -221 -396 -158 -353 -213 -477 -237 -528
-13 -29 -24 -55 -24 -59 0 -6 -49 -118 -107 -243 -20 -41 -73 -163 -120 -270
-47 -107 -101 -229 -120 -270 -19 -41 -49 -109 -65 -150 -16 -41 -38 -93 -48
-115 -30 -63 -189 -422 -225 -505 -89 -205 -398 -910 -515 -1175 -73 -165
-155 -354 -182 -420 -27 -66 -58 -140 -70 -165 -35 -77 -205 -464 -305 -695
-52 -121 -109 -251 -126 -290 -31 -69 -32 -72 -32 -225 1 -150 2 -157 27 -200
31 -53 153 -165 200 -184 38 -16 246 -23 938 -31 429 -6 459 -5 520 13 174 51
257 126 350 319 19 37 37 77 40 88 4 11 17 41 29 68 11 26 21 53 21 60 0 7 10
33 22 58 25 52 103 234 128 299 46 120 57 139 92 144 18 4 162 7 320 9 254 2
289 0 303 -14 15 -15 15 -20 2 -45 -8 -16 -18 -56 -22 -89 -4 -33 -9 -1183
-10 -2555 -2 -2397 -2 -2499 16 -2605 22 -127 37 -181 86 -320 57 -159 96
-231 205 -377 113 -150 151 -193 254 -284 96 -84 139 -112 294 -189 74 -37
142 -71 150 -76 63 -38 101 -51 168 -59 42 -4 1682 -7 3646 -5 l3569 4 82 50
c45 28 101 58 124 66 24 8 76 45 119 83 42 38 111 92 152 119 70 47 138 110
222 208 34 40 108 142 108 149 0 2 17 33 38 67 21 35 48 84 60 109 52 114 62
137 62 153 0 9 4 18 9 21 5 3 12 23 16 43 4 21 10 42 13 48 6 9 12 36 40 180
4 22 7 991 6 2153 -2 2289 2 2120 -51 2215 -8 16 -12 31 -9 34 5 6 59 -16 116
-46 9 -5 31 -12 50 -16 19 -4 40 -11 45 -15 11 -9 184 -44 550 -112 l230 -43
360 1 c299 1 371 4 425 17 36 9 216 53 400 97 364 87 436 108 520 151 30 15
73 36 95 45 22 10 60 31 85 48 53 37 67 45 111 70 124 69 444 351 568 501 155
186 268 360 373 575 92 187 134 291 168 410 12 41 25 86 30 100 8 22 30 99 36
125 1 6 9 37 17 70 66 254 99 533 105 900 5 317 -18 659 -53 795 -8 30 -24
107 -36 170 -20 105 -53 208 -180 565 -75 210 -143 327 -344 587 -226 293
-286 352 -490 486 -88 57 -179 118 -203 134 -174 121 -377 195 -720 264 -125
24 -263 52 -307 60 -67 14 -129 15 -385 9 -268 -6 -328 -10 -495 -36 -226 -36
-223 -35 -444 -111 -206 -70 -180 -57 -357 -175 -138 -91 -172 -105 -191 -80
-15 18 -24 746 -21 1707 4 1622 -5 2123 -42 2265 -12 44 -31 103 -44 130 -13
28 -33 75 -46 105 -61 152 -80 180 -267 405 -123 148 -207 235 -228 235 -3 0
-23 13 -43 30 -57 45 -187 109 -254 125 -34 8 -64 18 -67 23 -3 5 -22 12 -41
15 -19 3 -87 18 -150 33 l-115 28 -3400 2 -3400 3 -110 -23z m6890 -397 c137
-18 245 -57 377 -138 265 -160 411 -369 501 -716 l31 -120 3 -1938 4 -1937
-23 -39 c-23 -39 -68 -101 -224 -311 -47 -63 -101 -139 -121 -168 -20 -29 -40
-49 -44 -45 -5 5 -10 998 -11 2208 l-3 2200 -23 60 c-13 33 -28 75 -33 94 -30
97 -137 243 -230 313 -67 50 -107 70 -206 105 l-78 28 -3260 3 c-2320 2 -3279
0 -3325 -8 -174 -29 -301 -91 -410 -200 -41 -41 -90 -101 -109 -133 -43 -73
-88 -203 -101 -292 -6 -45 -10 -622 -10 -1586 l0 -1517 -55 -7 c-65 -8 -346 3
-358 14 -4 4 -6 716 -4 1582 3 1565 3 1574 24 1654 12 44 29 108 37 142 35
135 143 311 278 452 102 106 282 221 402 255 28 8 78 23 111 33 57 17 216 18
3255 23 3443 5 3485 5 3605 -11z m-5095 -826 c0 -7 -13 -37 -30 -66 -72 -127
-93 -334 -50 -472 33 -104 93 -197 172 -268 91 -82 136 -111 216 -140 142 -53
90 -51 1404 -50 1378 2 1284 -3 1454 78 123 59 213 153 278 288 59 124 69 165
70 277 1 106 -13 159 -71 273 -19 37 -32 74 -29 83 5 13 91 14 768 11 l763 -4
60 -32 c69 -36 109 -77 147 -153 l28 -54 0 -960 c1 -527 -3 -958 -7 -958 -4 1
-22 26 -40 56 -67 114 -198 203 -356 242 -63 16 -210 17 -1796 16 l-1729 0 -6
22 c-3 13 -6 38 -6 57 0 45 -69 169 -129 231 -109 115 -330 184 -479 149 -41
-9 -158 -63 -229 -105 -31 -18 -32 -18 -75 6 l-43 25 -653 3 c-641 3 -654 2
-725 -19 -264 -78 -443 -268 -493 -524 -17 -87 -20 -1349 -4 -1485 9 -69 20
-105 61 -189 81 -169 136 -226 308 -321 36 -19 66 -40 68 -46 2 -6 -21 -20
-51 -32 -80 -30 -129 -65 -198 -138 -34 -35 -68 -63 -75 -62 -14 3 -37 53
-139 292 -72 169 -170 365 -194 391 -25 27 -25 31 2 80 16 30 23 65 28 145 3
58 6 719 5 1470 -1 751 1 1439 5 1530 6 165 6 165 37 211 36 52 80 88 159 130
l56 29 759 -2 c629 -1 759 -4 759 -15z m965 -137 c50 -2 108 -1 130 4 28 6 42
5 47 -3 5 -9 221 -12 895 -13 l888 0 52 -23 c151 -67 185 -228 72 -339 -63
-62 -94 -70 -304 -76 -104 -4 -228 -6 -275 -6 -47 0 -515 4 -1040 8 l-956 7
-49 25 c-127 66 -165 224 -77 322 48 53 101 76 182 79 36 1 82 7 104 13 37 11
148 11 331 2z m-164 -1651 c40 -21 69 -71 69 -121 0 -66 -15 -84 -439 -519
-97 -100 -216 -225 -266 -280 -49 -54 -126 -135 -170 -180 -44 -45 -109 -112
-145 -149 -68 -72 -92 -86 -143 -86 -50 0 -94 33 -262 198 -169 166 -202 214
-192 279 18 110 147 154 245 84 26 -18 107 -105 184 -195 l25 -29 25 19 c14
10 34 31 45 46 11 15 96 108 189 205 94 98 197 207 230 242 58 63 160 170 359
375 55 57 109 109 120 115 29 15 91 13 126 -4z m-581 -85 c0 -12 -44 -63 -111
-130 -61 -60 -111 -111 -112 -112 -1 -1 -209 -5 -462 -8 l-460 -5 0 -633 0
-632 650 2 650 3 5 291 5 292 119 126 c65 69 121 126 125 126 11 0 2 -862 -10
-905 -18 -65 -67 -133 -118 -163 l-46 -27 -735 0 -735 0 -52 33 c-32 20 -65
53 -85 85 l-33 52 -3 710 c-3 794 -6 758 68 830 22 21 61 49 87 61 l48 23 603
0 c594 1 602 1 602 -19z m4503 -384 c52 -22 79 -59 85 -116 4 -43 1 -55 -22
-85 -57 -75 101 -69 -1761 -67 -918 1 -1687 2 -1708 2 -30 0 -46 8 -80 39 -41
39 -42 41 -42 104 0 72 15 99 70 123 45 20 3411 20 3458 0z m457 -1253 l0
-888 -48 55 c-177 205 -325 337 -513 460 -119 77 -466 249 -584 289 -49 17
-124 37 -165 46 -92 19 -110 24 -110 33 0 4 19 27 42 51 58 60 91 115 117 192
29 87 37 183 22 260 -10 51 -10 63 1 70 7 5 195 9 418 9 449 0 477 3 580 63
69 40 168 140 199 201 13 25 28 46 33 46 4 0 8 -399 8 -887z m-1727 569 c57
-25 97 -77 97 -126 0 -50 -31 -107 -72 -131 -32 -20 -51 -20 -1033 -20 -550
-1 -1039 2 -1087 5 -74 4 -90 9 -113 30 -29 27 -55 80 -55 112 0 26 33 89 60
113 31 28 86 29 1207 33 927 3 953 3 996 -16z m-2383 -623 c19 -12 60 -31 90
-42 51 -18 86 -20 453 -25 218 -2 397 -7 397 -12 0 -4 -64 -40 -142 -80 -250
-128 -458 -273 -627 -437 -24 -24 -46 -43 -50 -43 -3 0 -25 24 -49 54 -62 80
-139 141 -220 176 -39 16 -75 30 -81 30 -5 0 -22 5 -37 10 l-27 11 50 52 c78
81 141 185 173 285 7 23 18 42 24 42 6 0 27 -10 46 -21z m2364 -315 c188 -24
432 -83 551 -134 332 -142 617 -340 781 -544 205 -254 357 -544 441 -836 63
-222 116 -521 134 -753 21 -277 1 -750 -41 -937 -5 -25 -14 -74 -20 -110 -26
-156 -100 -408 -165 -567 -71 -170 -229 -454 -314 -564 -230 -296 -477 -505
-766 -649 -258 -128 -505 -202 -781 -235 -213 -26 -490 -37 -638 -25 -140 11
-402 45 -476 61 -177 40 -252 62 -425 126 -150 56 -379 164 -423 199 l-23 19
25 57 c25 56 47 103 170 362 36 76 66 139 66 141 0 2 19 43 41 92 23 48 57
121 75 161 18 39 37 72 43 72 5 0 38 -17 73 -37 317 -186 803 -299 1136 -263
347 37 594 143 796 343 194 192 341 511 390 847 34 233 31 242 -61 160 -249
-222 -572 -363 -923 -406 -273 -32 -630 1 -857 81 -306 107 -474 206 -685 405
-273 256 -423 558 -482 964 -46 316 29 741 179 1009 102 181 253 372 384 484
258 220 647 401 996 462 225 40 556 46 799 15z m4908 2 c220 -31 483 -112 698
-214 41 -19 139 -77 216 -129 112 -73 170 -121 277 -226 74 -72 143 -146 153
-162 11 -17 40 -60 67 -97 26 -36 47 -69 47 -72 0 -4 11 -22 23 -39 33 -45
129 -231 155 -299 12 -31 30 -76 41 -100 26 -58 85 -241 121 -380 55 -205 90
-545 90 -858 0 -213 -35 -621 -58 -695 -6 -16 -18 -66 -27 -110 -53 -247 -147
-518 -257 -740 -100 -204 -327 -495 -509 -655 -41 -36 -83 -73 -94 -84 -11
-10 -74 -54 -140 -98 -417 -278 -867 -400 -1475 -402 -422 -1 -848 76 -1195
217 -104 42 -312 149 -339 173 l-25 24 87 178 c48 97 107 220 131 272 24 52
80 171 124 263 93 195 83 189 200 118 37 -23 69 -41 72 -41 3 0 28 -11 57 -25
28 -14 56 -25 61 -25 6 0 33 -11 61 -25 168 -81 587 -155 796 -141 129 9 309
42 400 73 86 29 280 123 280 135 0 4 15 14 33 22 44 18 210 183 269 266 66 93
151 260 186 365 27 78 67 252 93 395 11 63 11 128 -1 135 -5 3 -29 -12 -52
-33 -118 -106 -423 -277 -593 -331 -493 -158 -1088 -108 -1529 129 -316 169
-549 401 -690 685 -115 232 -162 400 -187 663 -13 132 -7 260 20 435 18 112
75 285 142 426 134 282 324 498 610 689 69 46 267 152 284 152 4 0 21 6 38 14
213 93 425 142 747 170 95 8 490 -4 592 -18z m-10432 -71 c5 -3 19 -27 31 -53
61 -135 146 -328 181 -412 22 -52 48 -113 58 -135 26 -57 137 -307 210 -470
34 -77 76 -169 92 -205 16 -36 41 -92 55 -125 28 -67 123 -286 155 -355 29
-66 42 -95 83 -190 20 -47 43 -95 51 -107 8 -12 14 -27 14 -32 0 -5 18 -49 40
-96 22 -47 40 -88 40 -90 0 -3 14 -34 30 -70 17 -36 30 -68 30 -70 0 -3 20
-48 45 -99 25 -52 45 -98 45 -102 0 -4 19 -46 41 -93 23 -47 50 -104 59 -126
10 -22 27 -60 38 -85 12 -25 30 -69 41 -97 11 -29 36 -86 56 -127 19 -41 35
-77 35 -81 0 -4 19 -46 41 -94 23 -47 50 -107 60 -133 10 -26 41 -95 69 -153
27 -57 50 -107 50 -111 0 -4 20 -52 44 -108 25 -55 61 -139 81 -186 21 -47 64
-146 97 -220 63 -142 157 -360 314 -723 52 -120 94 -224 94 -232 0 -19 -52
-20 -686 -23 -435 -3 -543 0 -550 10 -6 7 -23 47 -39 88 -15 41 -31 80 -36 85
-4 6 -26 56 -47 110 -22 55 -66 159 -97 230 -95 217 -205 483 -205 497 0 8 -7
24 -16 36 l-15 22 -1198 0 c-942 0 -1201 -3 -1214 -12 -9 -7 -29 -47 -45 -88
-42 -107 -112 -276 -172 -415 -29 -66 -65 -149 -80 -185 -15 -36 -47 -108 -70
-160 -24 -52 -50 -119 -59 -149 -14 -45 -22 -56 -45 -62 -39 -11 -1188 -11
-1205 0 -10 7 0 39 53 155 37 81 79 179 95 219 31 79 310 714 335 762 18 36
57 128 182 423 52 122 98 230 104 240 11 21 46 99 93 212 20 47 49 113 66 148
17 34 31 64 31 67 0 2 18 42 40 89 22 47 40 87 40 90 0 3 16 39 35 80 19 41
35 77 35 80 0 3 16 37 35 77 19 39 37 80 41 92 3 12 17 45 29 72 13 28 34 79
48 115 14 36 50 119 80 185 133 293 156 345 191 430 53 127 105 246 189 435
13 30 28 66 32 78 4 13 38 89 76 169 38 80 69 149 69 154 0 4 13 36 29 71 17
35 55 124 86 198 32 74 69 162 84 195 15 33 56 124 90 202 35 78 68 146 74
152 7 5 28 11 47 13 62 6 1180 -1 1190 -7z m2887 -421 c63 -48 80 -120 43
-182 -11 -18 -86 -99 -166 -180 -125 -126 -332 -341 -430 -448 -65 -71 -393
-413 -442 -461 -48 -48 -58 -53 -97 -53 -38 0 -52 7 -102 48 -71 59 -278 278
-315 334 -44 65 -32 138 31 191 40 33 99 36 145 8 35 -23 174 -162 200 -203
10 -16 26 -28 35 -28 9 0 59 46 111 102 52 56 124 132 160 168 36 36 121 126
190 198 69 73 143 152 165 175 117 124 186 198 235 252 78 86 106 105 158 105
33 0 54 -7 79 -26z m-566 -52 c4 -4 -34 -51 -84 -104 -51 -54 -100 -109 -110
-123 l-18 -25 -472 -2 -472 -3 0 -362 c0 -199 -3 -364 -6 -368 -4 -3 -15 18
-24 47 -28 83 -140 319 -209 438 -24 43 -26 52 -26 186 l0 142 33 48 c19 29
57 66 92 89 l60 40 165 5 c235 7 1063 1 1071 -8z m400 -1154 c-1 -254 -6 -469
-11 -489 -6 -20 -19 -46 -29 -58 -11 -13 -21 -26 -23 -30 -2 -4 -25 -22 -52
-41 l-48 -35 -521 0 -522 0 -63 118 c-35 66 -61 122 -57 125 4 4 246 9 538 12
l532 5 5 297 5 296 25 28 c14 15 50 55 81 88 31 34 73 80 94 104 21 23 40 41
42 38 3 -2 4 -208 4 -458z m274 -1055 c154 -288 386 -536 666 -714 121 -76
321 -180 379 -197 19 -6 73 -26 120 -46 174 -72 445 -128 625 -129 83 -1 138
3 152 11 11 6 79 18 150 26 70 8 147 21 170 30 40 14 42 14 77 -12 19 -15 35
-32 36 -39 1 -30 -106 -83 -230 -114 -84 -21 -116 -24 -275 -23 -200 1 -314
16 -485 65 -128 37 -302 115 -391 176 -59 40 -77 46 -149 56 -140 18 -245 -11
-334 -92 -63 -58 -158 -229 -320 -575 -26 -54 -50 -96 -54 -92 -4 5 -8 47 -8
94 -5 377 -26 1032 -35 1099 -13 94 -44 154 -130 254 -69 80 -136 127 -243
170 -50 20 -91 42 -91 49 0 7 26 20 61 30 63 17 151 59 193 92 13 10 29 17 35
15 6 -2 43 -62 81 -134z m4883 -85 c15 -17 41 -53 57 -79 95 -149 242 -302
435 -452 118 -92 160 -116 435 -256 57 -29 163 -64 365 -120 l285 -80 185 -11
c129 -8 206 -8 255 -1 39 6 106 11 151 11 44 0 104 7 133 16 39 11 57 12 64 5
17 -17 -7 -35 -108 -79 -92 -41 -179 -60 -373 -83 -98 -12 -111 -11 -264 15
-158 28 -294 67 -413 120 -33 15 -73 32 -89 39 -16 7 -52 24 -80 39 -168 89
-214 101 -335 89 -67 -7 -91 -15 -134 -41 -29 -18 -64 -40 -80 -49 -35 -21
-260 -455 -409 -791 -119 -268 -122 -276 -138 -348 -15 -66 -34 -78 -98 -62
-53 13 -159 5 -211 -17 -65 -27 -120 -73 -161 -133 -78 -115 -79 -126 -80
-641 -1 -238 -5 -428 -9 -423 -4 5 -33 46 -64 91 -77 110 -138 159 -235 190
-172 55 -181 55 -1963 48 -1849 -7 -1669 -15 -1669 77 0 40 -9 70 -40 132 -22
45 -50 92 -62 106 -52 57 -136 112 -211 140 -41 14 -171 41 -193 39 -66 -6
-67 1 -3 43 35 24 91 69 124 100 l59 58 16 -28 c27 -50 62 -90 104 -120 176
-127 549 -285 826 -351 117 -27 119 -28 350 -53 181 -20 249 -23 580 -21 373
2 376 2 623 38 258 37 320 52 577 137 196 64 235 84 443 225 333 224 373 256
504 402 145 163 233 269 233 282 0 6 37 76 81 157 237 426 235 423 309 639 96
280 166 630 186 931 4 56 9 102 11 102 2 0 16 -14 31 -32z m-5325 -329 c53
-14 101 -61 134 -127 l28 -57 0 -742 0 -741 -30 -43 c-40 -56 -52 -59 -71 -12
-9 21 -29 66 -45 101 -16 34 -48 104 -70 155 l-41 92 -2 565 -1 565 -247 5
c-135 3 -248 7 -251 10 -2 3 -12 25 -21 50 -10 25 -33 73 -52 108 -19 34 -34
67 -34 72 0 14 654 13 703 -1z m-2241 -1461 c8 -7 30 -49 48 -93 18 -44 59
-138 91 -210 31 -71 74 -170 94 -220 56 -138 122 -281 164 -351 l30 -51 -57
-59 c-68 -71 -120 -156 -140 -227 -7 -29 -18 -68 -23 -87 -12 -41 -17 -919 -9
-1280 5 -191 10 -259 24 -310 23 -81 69 -175 119 -241 21 -28 36 -53 34 -56
-8 -7 -357 -6 -365 1 -7 7 -8 792 -2 1672 4 704 -8 1339 -27 1402 -9 29 -20
55 -24 58 -5 3 -9 18 -9 35 0 32 23 40 52 17z m-422 -1910 c0 -1173 3 -1678
10 -1683 6 -4 648 -8 1428 -10 779 -1 2517 -6 3862 -10 2031 -5 2449 -4 2470
7 31 17 39 56 29 144 -14 116 -16 2714 -2 2714 6 0 22 -12 35 -27 13 -16 55
-57 94 -92 38 -36 117 -112 177 -169 l107 -104 -3 -2047 c-3 -1908 -4 -2050
-20 -2111 -102 -380 -275 -613 -583 -786 -83 -46 -178 -80 -308 -109 l-109
-25 -3301 0 c-3594 0 -3342 -4 -3514 56 -421 145 -711 493 -782 938 -11 72
-15 4969 -4 4987 3 5 98 8 210 7 l205 -3 -1 -1677z m2990 782 c8 -5 26 -20 39
-34 33 -36 36 -119 5 -158 -30 -39 -236 -258 -424 -453 -340 -352 -576 -601
-604 -638 -30 -39 -72 -67 -102 -67 -9 0 -38 17 -63 37 -72 58 -359 354 -371
384 -25 59 39 172 104 184 66 13 109 -9 200 -103 47 -48 93 -97 101 -109 9
-13 22 -23 30 -23 7 0 40 29 72 64 97 107 546 580 719 758 136 140 167 167
196 170 36 5 75 0 98 -12z m-651 -166 c-69 -69 -134 -127 -145 -129 -10 -2
-223 -4 -471 -4 l-453 -1 0 -645 0 -645 108 0 c59 0 342 -3 629 -6 287 -4 534
-3 548 0 l25 6 0 285 c0 264 1 285 18 297 10 7 66 66 123 131 l104 119 3 -424
c1 -232 0 -436 -3 -453 -9 -49 -80 -151 -126 -182 l-43 -28 -730 0 -731 0 -46
27 c-56 33 -95 77 -121 137 -18 42 -18 77 -16 740 l3 696 27 51 c28 53 85 111
140 141 31 17 79 18 648 23 338 3 619 2 624 -2 6 -5 -46 -64 -115 -134z m4561
-332 c102 -51 106 -192 8 -252 -33 -20 -54 -20 -1719 -20 l-1686 0 -33 23
c-93 63 -91 211 3 252 27 12 292 14 1712 15 1580 0 1682 -1 1715 -18z m480
-957 c0 -460 -3 -601 -13 -607 -13 -8 -4307 -2 -4315 6 -2 3 3 12 11 21 61 61
137 183 137 221 0 8 3 14 8 12 4 -2 34 -17 67 -34 33 -18 98 -40 145 -50 80
-17 152 -18 1174 -16 1216 2 1134 -2 1275 75 122 66 205 171 245 306 18 62 21
212 5 280 -5 24 -7 46 -4 50 3 3 185 7 403 8 417 3 459 7 546 50 54 26 196
129 196 142 0 4 13 22 30 41 16 18 33 43 36 54 9 30 25 47 41 44 12 -3 14 -95
13 -603z m-1711 235 c91 -64 83 -193 -14 -247 l-40 -23 -1055 3 -1055 2 -35
22 c-89 55 -95 175 -12 238 24 18 47 20 232 25 113 3 597 4 1077 4 l872 -2 30
-22z"/>
<path d="M9032 15783 c-28 -14 -307 -296 -473 -478 -29 -33 -86 -94 -125 -135
-40 -41 -118 -124 -175 -184 -57 -60 -118 -124 -135 -143 -53 -55 -69 -48
-196 81 -119 119 -135 129 -209 119 -73 -10 -110 -92 -74 -166 19 -40 286
-305 346 -342 71 -45 128 -27 211 67 29 33 73 81 97 106 60 63 270 291 302
328 14 16 61 63 105 105 43 41 138 138 209 214 72 76 156 164 187 195 95 94
111 171 47 224 -35 30 -70 32 -117 9z"/>
<path d="M7325 15699 c-55 -29 -91 -65 -115 -114 -19 -40 -20 -62 -20 -727 0
-749 -1 -740 58 -801 15 -16 47 -41 72 -55 l45 -27 698 2 c441 2 712 6 736 13
46 12 104 73 133 138 19 42 20 66 20 356 0 498 1 466 -21 466 -18 0 -141 -126
-165 -167 -4 -8 -8 -137 -7 -287 1 -222 -1 -275 -13 -291 -14 -20 -30 -20
-671 -23 -440 -2 -662 1 -670 8 -9 8 -12 152 -13 641 l0 632 23 23 c27 27 -15
25 613 24 197 0 289 3 305 11 35 19 189 178 182 189 -4 6 -209 10 -578 10
-562 0 -573 0 -612 -21z"/>
<path d="M11270 12810 c-14 -4 -63 -19 -110 -33 -103 -29 -154 -54 -241 -118
-129 -95 -219 -224 -278 -396 -28 -85 -31 -103 -31 -222 0 -110 4 -145 29
-239 18 -72 39 -126 60 -156 17 -26 31 -50 31 -54 0 -4 32 -42 71 -84 104
-115 202 -171 411 -237 20 -7 86 -16 145 -21 339 -27 602 57 787 250 100 105
153 209 177 350 40 227 11 397 -97 585 -66 114 -123 176 -217 239 -169 112
-266 139 -522 142 -104 2 -201 -1 -215 -6z m307 -411 c110 -15 174 -47 248
-124 75 -78 95 -126 95 -235 0 -230 -112 -355 -341 -380 -283 -32 -495 66
-545 251 -28 107 -10 245 41 320 100 143 269 200 502 168z"/>
<path d="M16115 12806 c-22 -8 -71 -24 -110 -35 -86 -26 -228 -107 -298 -171
-67 -61 -166 -227 -203 -340 -25 -77 -28 -99 -28 -235 -1 -145 0 -153 33 -250
81 -239 241 -395 491 -478 334 -111 713 -48 957 160 110 94 200 250 228 393
22 118 20 286 -5 384 -62 245 -261 453 -510 535 -36 12 -78 26 -95 33 -47 18
-410 21 -460 4z m365 -413 c96 -18 154 -46 210 -103 82 -81 115 -192 99 -323
-17 -133 -99 -229 -243 -282 -129 -48 -329 -43 -456 13 -63 27 -130 90 -165
153 -28 51 -30 60 -30 169 0 90 4 126 19 165 22 57 104 149 156 174 97 49 261
62 410 34z"/>
<path d="M5632 12433 c-5 -10 -35 -81 -67 -158 -31 -77 -70 -169 -87 -205 -43
-94 -118 -269 -118 -277 0 -4 -9 -25 -19 -47 -11 -23 -58 -135 -104 -251 -47
-115 -106 -259 -132 -320 -25 -60 -60 -144 -76 -185 -17 -41 -52 -127 -79
-190 -26 -63 -63 -153 -80 -200 -18 -47 -36 -89 -41 -94 -5 -6 -9 -18 -9 -27
0 -23 61 -25 820 -22 327 2 646 3 708 3 94 0 112 2 112 16 0 14 -15 52 -118
289 -19 44 -47 112 -62 150 -15 39 -73 178 -130 310 -56 132 -112 267 -124
300 -13 33 -55 137 -94 230 -203 491 -245 594 -262 639 -24 60 -26 62 -38 39z
m42 -1143 c45 -119 95 -216 136 -266 69 -83 74 -156 13 -168 -48 -9 -265 -9
-328 0 -75 11 -77 21 -32 116 19 40 42 95 52 123 9 27 30 78 46 113 16 35 29
65 29 67 0 2 9 25 20 51 13 29 24 44 30 38 5 -5 20 -38 34 -74z"/>
<path d="M9034 13228 c-18 -4 -50 -29 -74 -55 -24 -27 -111 -120 -195 -208
-83 -88 -169 -180 -191 -205 -21 -25 -43 -50 -49 -56 -5 -7 -75 -79 -155 -161
-80 -82 -178 -184 -219 -226 -98 -103 -99 -103 -220 28 -92 99 -151 145 -189
145 -16 0 -39 -14 -64 -40 -76 -81 -52 -133 160 -342 200 -197 221 -204 317
-104 63 65 376 394 418 440 37 39 105 109 427 441 80 83 153 161 163 175 56
80 -32 194 -129 168z"/>
<path d="M7390 13161 c-73 -15 -149 -70 -180 -132 -17 -32 -20 -59 -20 -163
l0 -124 80 -160 c43 -88 84 -164 91 -167 25 -16 30 21 29 253 0 301 -11 282
164 282 468 0 783 6 797 15 27 18 159 166 159 179 0 8 -18 16 -46 20 -63 8
-1030 6 -1074 -3z"/>
<path d="M8869 12342 c-30 -32 -68 -75 -84 -97 l-30 -38 -5 -276 c-3 -152 -9
-284 -13 -293 -5 -9 -16 -19 -25 -23 -9 -3 -226 -6 -482 -6 -256 0 -481 -3
-500 -8 -27 -6 -35 -12 -33 -28 3 -30 82 -162 105 -174 21 -11 865 -14 953 -3
58 8 99 26 138 63 63 58 62 45 65 514 3 415 3 427 -16 427 -10 0 -44 -26 -73
-58z"/>
<path d="M6193 5113 c-24 -3 -34 -10 -39 -27 -3 -13 -4 -280 -2 -592 l4 -569
28 -85 c96 -290 283 -466 556 -522 93 -19 6537 -20 6619 0 248 58 439 224 536
467 15 38 31 96 36 129 5 34 9 314 9 622 0 456 -3 564 -13 573 -10 8 -1065 10
-3858 9 -2114 -1 -3859 -3 -3876 -5z m3127 -429 c0 -16 -12 -46 -57 -140 -18
-39 -33 -77 -33 -83 0 -6 -4 -19 -9 -29 -36 -64 -51 -146 -51 -270 0 -121 2
-132 35 -222 20 -52 47 -118 60 -147 14 -28 25 -59 25 -67 0 -14 -118 -16
-1196 -16 -821 0 -1217 3 -1266 11 -111 17 -185 65 -226 147 -21 41 -22 53
-22 431 0 213 3 391 7 395 4 4 621 6 1370 5 1087 -2 1363 -5 1363 -15z m4199
2 c11 -7 12 -68 7 -345 -4 -185 -9 -361 -12 -392 -9 -87 -46 -140 -124 -176
-8 -3 -17 -9 -20 -13 -3 -3 -27 -15 -55 -25 -48 -18 -101 -19 -1272 -20
l-1223 -2 0 22 c0 13 6 25 14 28 8 3 18 27 22 54 4 26 11 51 16 54 5 3 12 25
15 48 3 22 9 41 13 41 34 0 40 391 7 428 -9 9 -19 39 -23 67 -4 27 -27 87 -50
133 -24 47 -44 89 -44 96 0 14 2707 16 2729 2z m-3344 -51 c207 -54 345 -241
345 -468 0 -188 -122 -378 -280 -437 -120 -45 -323 -27 -428 38 -54 33 -119
97 -154 152 -57 89 -71 141 -72 265 -1 107 0 112 36 188 48 102 129 182 230
231 40 19 84 36 98 39 58 10 170 6 225 -8z"/>
<path d="M9965 4371 c-78 -36 -117 -106 -117 -209 1 -121 90 -206 218 -205 74
1 115 20 153 74 68 93 56 223 -26 301 -60 58 -152 73 -228 39z"/>
</g>
</svg>
